<svg xmlns="http://www.w3.org/2000/svg" width="320" height="338" viewBox="0 0 320 338">
<g clip-path="url(#clip0_1_62)">
<path d="M0 154C0 145.163 7.16344 138 16 138H304C312.837 138 320 145.163 320 154V322C320 330.837 312.837 338 304 338H16C7.16345 338 0 330.837 0 322V154Z" fill="#F34C62"/>
<path d="M152.373 54.7929C157.387 51.8356 163.613 51.8356 168.627 54.7929L312.214 139.468C326.248 147.744 320.379 169.25 304.087 169.25H16.9131C0.62151 169.25 -5.2476 147.744 8.78564 139.468L152.373 54.7929Z" fill="#782933"/>
<path d="M168.115 253.225C163.106 256.172 156.894 256.172 151.885 253.225L7.97365 168.54C-6.07414 160.273 -0.211289 138.75 16.0882 138.75L303.912 138.75C320.211 138.75 326.074 160.273 312.026 168.54L168.115 253.225Z" fill="#782933"/>
<mask id="mask0_1_62" style="mask-type:alpha" maskUnits="userSpaceOnUse" x="0" y="-46" width="320" height="302">
<path d="M168.115 253.225C163.106 256.172 156.894 256.172 151.885 253.225L7.97365 168.54C-6.07414 160.273 -0.211288 138.75 16.0882 138.75L303.912 138.75C320.211 138.75 326.074 160.273 312.026 168.54L168.115 253.225Z" fill="#782933"/>
<path d="M0 -46H320V154H0V-46Z" fill="#782933"/>
</mask>
<g mask="url(#mask0_1_62)">
<rect x="32" width="256" height="256" rx="8" fill="#D8D8D8"/>
</g>
<path d="M160 281C190.127 257.361 188.994 249.004 188.994 242.455C188.994 235.905 183.558 228 174.497 228C165.436 228 160 237.636 160 237.636C160 237.636 154.564 228 145.503 228C136.442 228 131.006 235.905 131.006 242.455C131.006 249.004 129.873 257.361 160 281Z" fill="#782933"/>
</g>
<defs>
<clipPath id="clip0_1_62">
<rect width="320" height="338" fill="white"/>
</clipPath>
</defs>
</svg>
